<?xml version="1.0" encoding="UTF-8"?>
<svg version="1.1" xmlns="http://www.w3.org/2000/svg" width="572" height="539">
<path d="M0 0 C143.88 0 287.76 0 436 0 C436 143.88 436 287.76 436 436 C292.12 436 148.24 436 0 436 C0 350.86 0 265.72 0 178 C-28.71 178 -57.42 178 -87 178 C-87 161.5 -87 145 -87 128 C-58.29 128 -29.58 128 0 128 C0 85.76 0 43.52 0 0 Z M49 49 C49 75.07 49 101.14 49 128 C105.1 128 161.2 128 219 128 C219 144.5 219 161 219 178 C162.9 178 106.8 178 49 178 C49 204.07 49 230.14 49 257 C91.57 257 134.14 257 178 257 C178 273.5 178 290 178 307 C135.43 307 92.86 307 49 307 C49 333.4 49 359.8 49 387 C160.54 387 272.08 387 387 387 C387 275.46 387 163.92 387 49 C275.46 49 163.92 49 49 49 Z " fill="#02C65F" transform="translate(87,52)"/>
</svg>
